<svg width="110" height="29" viewBox="0 0 110 29" fill="none" xmlns="http://www.w3.org/2000/svg">
<path d="M13.1507 15.076C14.0627 15.22 14.8907 15.592 15.6347 16.192C16.4027 16.792 17.0027 17.536 17.4347 18.424C17.8907 19.312 18.1187 20.26 18.1187 21.268C18.1187 22.54 17.7947 23.692 17.1467 24.724C16.4987 25.732 15.5507 26.536 14.3027 27.136C13.0787 27.712 11.6267 28 9.94669 28H0.586686V2.908H9.58669C11.2907 2.908 12.7427 3.196 13.9427 3.772C15.1427 4.324 16.0427 5.08 16.6427 6.04C17.2427 7 17.5427 8.08 17.5427 9.28C17.5427 10.768 17.1347 12.004 16.3187 12.988C15.5267 13.948 14.4707 14.644 13.1507 15.076ZM3.86269 13.744H9.37069C10.9067 13.744 12.0947 13.384 12.9347 12.664C13.7747 11.944 14.1947 10.948 14.1947 9.676C14.1947 8.404 13.7747 7.408 12.9347 6.688C12.0947 5.968 10.8827 5.608 9.29869 5.608H3.86269V13.744ZM9.65869 25.3C11.2907 25.3 12.5627 24.916 13.4747 24.148C14.3867 23.38 14.8427 22.312 14.8427 20.944C14.8427 19.552 14.3627 18.46 13.4027 17.668C12.4427 16.852 11.1587 16.444 9.55069 16.444H3.86269V25.3H9.65869ZM27.0208 11.476C27.5968 10.348 28.4128 9.472 29.4688 8.848C30.5488 8.224 31.8568 7.912 33.3928 7.912V11.296H32.5288C28.8568 11.296 27.0208 13.288 27.0208 17.272V28H23.7448V8.272H27.0208V11.476ZM39.9465 5.068C39.3225 5.068 38.7945 4.852 38.3625 4.42C37.9305 3.988 37.7145 3.46 37.7145 2.836C37.7145 2.212 37.9305 1.684 38.3625 1.252C38.7945 0.819999 39.3225 0.603999 39.9465 0.603999C40.5465 0.603999 41.0505 0.819999 41.4585 1.252C41.8905 1.684 42.1065 2.212 42.1065 2.836C42.1065 3.46 41.8905 3.988 41.4585 4.42C41.0505 4.852 40.5465 5.068 39.9465 5.068ZM41.5305 8.272V28H38.2545V8.272H41.5305ZM52.1899 10.972V22.6C52.1899 23.56 52.3939 24.244 52.8019 24.652C53.2099 25.036 53.9179 25.228 54.9259 25.228H57.3379V28H54.3859C52.5619 28 51.1939 27.58 50.2819 26.74C49.3699 25.9 48.9139 24.52 48.9139 22.6V10.972H46.3579V8.272H48.9139V3.304H52.1899V8.272H57.3379V10.972H52.1899ZM65.6632 1.36V28H62.3872V1.36H65.6632ZM90.3265 17.38C90.3265 18.004 90.2905 18.664 90.2185 19.36H74.4505C74.5705 21.304 75.2305 22.828 76.4305 23.932C77.6545 25.012 79.1305 25.552 80.8585 25.552C82.2745 25.552 83.4505 25.228 84.3865 24.58C85.3465 23.908 86.0185 23.02 86.4025 21.916H89.9305C89.4025 23.812 88.3465 25.36 86.7625 26.56C85.1785 27.736 83.2105 28.324 80.8585 28.324C78.9865 28.324 77.3065 27.904 75.8185 27.064C74.3545 26.224 73.2025 25.036 72.3625 23.5C71.5225 21.94 71.1025 20.14 71.1025 18.1C71.1025 16.06 71.5105 14.272 72.3265 12.736C73.1425 11.2 74.2825 10.024 75.7465 9.208C77.2345 8.368 78.9385 7.948 80.8585 7.948C82.7305 7.948 84.3865 8.356 85.8265 9.172C87.2665 9.988 88.3705 11.116 89.1385 12.556C89.9305 13.972 90.3265 15.58 90.3265 17.38ZM86.9425 16.696C86.9425 15.448 86.6665 14.38 86.1145 13.492C85.5625 12.58 84.8065 11.896 83.8465 11.44C82.9105 10.96 81.8665 10.72 80.7145 10.72C79.0585 10.72 77.6425 11.248 76.4665 12.304C75.3145 13.36 74.6545 14.824 74.4865 16.696H86.9425ZM106.027 28L101.347 20.656L96.8468 28H93.4268L99.7988 18.208L93.4268 8.272H97.1348L101.815 15.58L106.279 8.272H109.699L103.363 18.028L109.735 28H106.027Z" fill="black"/>
</svg>
